{
  "accessors": [
    {
      "bufferView": 2,
      "componentType": 5126,
      "count": 5791,
      "max": [
        0.8676018714904785,
        0.9026880264282227,
        0.6906975507736206
      ],
      "min": [
        -1.0371134281158447,
        -0.9794555306434631,
        -5.081983167620763e-10
      ],
      "type": "VEC3"
    },
    {
      "bufferView": 2,
      "byteOffset": 69492,
      "componentType": 5126,
      "count": 5791,
      "max": [
        1.0,
        1.0,
        1.0
      ],
      "min": [
        -1.0,
        -1.0,
        -1.0
      ],
      "type": "VEC3"
    },
    {
      "bufferView": 1,
      "componentType": 5126,
      "count": 5791,
      "max": [
        0.9664794206619263,
        0.9411175847053528
      ],
      "min": [
        0.0,
        -0.009069924242794514
      ],
      "type": "VEC2"
    },
    {
      "bufferView": 1,
      "byteOffset": 46328,
      "componentType": 5126,
      "count": 5791,
      "max": [
        0.0,
        0.0
      ],
      "min": [
        0.0,
        0.0
      ],
      "type": "VEC2"
    },
    {
      "bufferView": 1,
      "byteOffset": 92656,
      "componentType": 5126,
      "count": 5791,
      "max": [
        0.0,
        0.0
      ],
      "min": [
        0.0,
        0.0
      ],
      "type": "VEC2"
    },
    {
      "bufferView": 1,
      "byteOffset": 138984,
      "componentType": 5126,
      "count": 5791,
      "max": [
        0.0,
        0.0
      ],
      "min": [
        0.0,
        0.0
      ],
      "type": "VEC2"
    },
    {
      "bufferView": 0,
      "componentType": 5125,
      "count": 18366,
      "type": "SCALAR"
    },
    {
      "bufferView": 2,
      "byteOffset": 138984,
      "componentType": 5126,
      "count": 1214,
      "max": [
        0.44623202085494995,
        0.43431341648101807,
        0.2810583710670471
      ],
      "min": [
        -0.6189603209495544,
        -0.4546566605567932,
        -0.0032366514205932617
      ],
      "type": "VEC3"
    },
    {
      "bufferView": 2,
      "byteOffset": 153552,
      "componentType": 5126,
      "count": 1214,
      "max": [
        1.0,
        1.0,
        0.006226839032024145
      ],
      "min": [
        -1.0,
        -1.0,
        0.0
      ],
      "type": "VEC3"
    },
    {
      "bufferView": 1,
      "byteOffset": 185312,
      "componentType": 5126,
      "count": 1214,
      "max": [
        0.8924948573112488,
        0.9854139089584351
      ],
      "min": [
        0.11639967560768127,
        0.5184836387634277
      ],
      "type": "VEC2"
    },
    {
      "bufferView": 1,
      "byteOffset": 195024,
      "componentType": 5126,
      "count": 1214,
      "max": [
        0.7912601828575134,
        0.8402344584465027
      ],
      "min": [
        0.0,
        0.0
      ],
      "type": "VEC2"
    },
    {
      "bufferView": 1,
      "byteOffset": 204736,
      "componentType": 5126,
      "count": 1214,
      "max": [
        0.0,
        0.0
      ],
      "min": [
        0.0,
        0.0
      ],
      "type": "VEC2"
    },
    {
      "bufferView": 1,
      "byteOffset": 214448,
      "componentType": 5126,
      "count": 1214,
      "max": [
        0.0,
        0.0
      ],
      "min": [
        0.0,
        0.0
      ],
      "type": "VEC2"
    },
    {
      "bufferView": 0,
      "byteOffset": 73464,
      "componentType": 5125,
      "count": 1974,
      "type": "SCALAR"
    },
    {
      "bufferView": 2,
      "byteOffset": 168120,
      "componentType": 5126,
      "count": 32871,
      "max": [
        1.8176350593566895,
        3.776711940765381,
        3.1526904106140137
      ],
      "min": [
        -9.138965606689453,
        -4.4622111320495605,
        -2.566657543182373
      ],
      "type": "VEC3"
    },
    {
      "bufferView": 2,
      "byteOffset": 562572,
      "componentType": 5126,
      "count": 32871,
      "max": [
        0.9998301863670349,
        0.9998636841773987,
        1.0
      ],
      "min": [
        -0.9998302459716797,
        -0.999863862991333,
        -1.0
      ],
      "type": "VEC3"
    },
    {
      "bufferView": 1,
      "byteOffset": 224160,
      "componentType": 5126,
      "count": 32871,
      "max": [
        7.021807670593262,
        2.0548574924468994
      ],
      "min": [
        -6.021862506866455,
        0.0
      ],
      "type": "VEC2"
    },
    {
      "bufferView": 1,
      "byteOffset": 487128,
      "componentType": 5126,
      "count": 32871,
      "max": [
        0.9999999403953552,
        0.9999999403953552
      ],
      "min": [
        0.0,
        0.0
      ],
      "type": "VEC2"
    },
    {
      "bufferView": 0,
      "byteOffset": 81360,
      "componentType": 5125,
      "count": 64020,
      "type": "SCALAR"
    },
    {
      "bufferView": 2,
      "byteOffset": 957024,
      "componentType": 5126,
      "count": 355,
      "max": [
        15.049592018127441,
        5.214463710784912,
        4.402528762817383
      ],
      "min": [
        0.023114681243896484,
        -5.214463710784912,
        0.4980696141719818
      ],
      "type": "VEC3"
    },
    {
      "bufferView": 2,
      "byteOffset": 961284,
      "componentType": 5126,
      "count": 355,
      "max": [
        0.9979692697525024,
        0.9995405673980713,
        1.0
      ],
      "min": [
        -0.9979692697525024,
        -0.9995405673980713,
        0.03031020611524582
      ],
      "type": "VEC3"
    },
    {
      "bufferView": 1,
      "byteOffset": 750096,
      "componentType": 5126,
      "count": 355,
      "max": [
        2.0432801246643066,
        0.9999949932098389
      ],
      "min": [
        -1.0432802438735962,
        -0.0043585896492004395
      ],
      "type": "VEC2"
    },
    {
      "bufferView": 0,
      "byteOffset": 337440,
      "componentType": 5125,
      "count": 714,
      "type": "SCALAR"
    }
  ],
  "asset": {
    "extras": {
      "author": "AnixMoon (https://sketchfab.com/ani111)",
      "license": "CC-BY-4.0 (http://creativecommons.org/licenses/by/4.0/)",
      "source": "https://sketchfab.com/3d-models/anime-academy-from-sword-art-online-e2110c991a24429c936d3eaceeb89cce",
      "title": "Anime Academy from Sword Art Online"
    },
    "generator": "Sketchfab-10.85.0",
    "version": "2.0"
  },
  "bufferViews": [
    {
      "buffer": 0,
      "byteLength": 340296,
      "name": "floatBufferViews",
      "target": 34963
    },
    {
      "buffer": 0,
      "byteLength": 752936,
      "byteOffset": 340296,
      "byteStride": 8,
      "name": "floatBufferViews",
      "target": 34962
    },
    {
      "buffer": 0,
      "byteLength": 965544,
      "byteOffset": 1093232,
      "byteStride": 12,
      "name": "floatBufferViews",
      "target": 34962
    }
  ],
  "buffers": [
    {
      "byteLength": 2058776,
      "uri": "scene.bin"
    }
  ],
  "extensionsUsed": [
    "KHR_materials_unlit"
  ],
  "images": [
    {
      "uri": "textures/Material.003_baseColor.png"
    },
    {
      "uri": "textures/Material.003_emissive.png"
    },
    {
      "uri": "textures/Material.002_baseColor.png"
    },
    {
      "uri": "textures/Material.002_emissive.png"
    },
    {
      "uri": "textures/Material.004_baseColor.png"
    }
  ],
  "materials": [
    {
      "alphaMode": "BLEND",
      "doubleSided": true,
      "emissiveFactor": [
        0.3,
        0.3,
        0.3
      ],
      "emissiveTexture": {
        "index": 1
      },
      "extensions": {
        "KHR_materials_unlit": {}
      },
      "name": "Material.003",
      "pbrMetallicRoughness": {
        "baseColorTexture": {
          "index": 0
        },
        "metallicFactor": 0.0
      }
    },
    {
      "doubleSided": true,
      "emissiveFactor": [
        1.0,
        1.0,
        1.0
      ],
      "emissiveTexture": {
        "index": 1
      },
      "extensions": {
        "KHR_materials_unlit": {}
      },
      "name": "Material.006",
      "pbrMetallicRoughness": {
        "baseColorTexture": {
          "index": 1
        },
        "metallicFactor": 0.0
      }
    },
    {
      "alphaMode": "BLEND",
      "doubleSided": true,
      "emissiveFactor": [
        0.3,
        0.3,
        0.3
      ],
      "emissiveTexture": {
        "index": 3
      },
      "extensions": {
        "KHR_materials_unlit": {}
      },
      "name": "Material.002",
      "pbrMetallicRoughness": {
        "baseColorTexture": {
          "index": 2
        },
        "metallicFactor": 0.0
      }
    },
    {
      "doubleSided": true,
      "emissiveFactor": [
        0.5022396866922534,
        0.5022396866922534,
        0.5022396866922534
      ],
      "emissiveTexture": {
        "index": 4
      },
      "extensions": {
        "KHR_materials_unlit": {}
      },
      "name": "Material.004",
      "pbrMetallicRoughness": {
        "baseColorTexture": {
          "index": 4
        },
        "metallicFactor": 0.0
      }
    }
  ],
  "meshes": [
    {
      "name": "F_Material.003_0",
      "primitives": [
        {
          "attributes": {
            "NORMAL": 1,
            "POSITION": 0,
            "TEXCOORD_0": 2,
            "TEXCOORD_1": 3,
            "TEXCOORD_2": 4,
            "TEXCOORD_3": 5
          },
          "indices": 6,
          "material": 0,
          "mode": 4
        }
      ]
    },
    {
      "name": "F_Material.006_0",
      "primitives": [
        {
          "attributes": {
            "NORMAL": 8,
            "POSITION": 7,
            "TEXCOORD_0": 9,
            "TEXCOORD_1": 10,
            "TEXCOORD_2": 11,
            "TEXCOORD_3": 12
          },
          "indices": 13,
          "material": 1,
          "mode": 4
        }
      ]
    },
    {
      "name": "W_Material.002_0",
      "primitives": [
        {
          "attributes": {
            "NORMAL": 15,
            "POSITION": 14,
            "TEXCOORD_0": 16,
            "TEXCOORD_1": 17
          },
          "indices": 18,
          "material": 2,
          "mode": 4
        }
      ]
    },
    {
      "name": "R_Material.004_0",
      "primitives": [
        {
          "attributes": {
            "NORMAL": 20,
            "POSITION": 19,
            "TEXCOORD_0": 21
          },
          "indices": 22,
          "material": 3,
          "mode": 4
        }
      ]
    }
  ],
  "nodes": [
    {
      "children": [
        1
      ],
      "matrix": [
        1.0,
        0.0,
        0.0,
        0.0,
        0.0,
        2.220446049250313e-16,
        -1.0,
        0.0,
        0.0,
        1.0,
        2.220446049250313e-16,
        0.0,
        0.0,
        0.0,
        0.0,
        1.0
      ],
      "name": "Sketchfab_model"
    },
    {
      "children": [
        2
      ],
      "matrix": [
        1.0,
        0.0,
        0.0,
        0.0,
        0.0,
        0.0,
        1.0,
        0.0,
        0.0,
        -1.0,
        0.0,
        0.0,
        0.0,
        0.0,
        0.0,
        1.0
      ],
      "name": "7ffe911bdc1b4f888f143ff2e2816246.fbx"
    },
    {
      "children": [
        3,
        6,
        8
      ],
      "name": "RootNode"
    },
    {
      "children": [
        4,
        5
      ],
      "matrix": [
        1466.0775146484375,
        0.0,
        0.0,
        0.0,
        0.0,
        -0.0002388543447276111,
        -1466.0775146484182,
        0.0,
        0.0,
        1466.0775146484182,
        -0.0002388543447276111,
        0.0,
        139.9463653564453,
        67.2620620727539,
        164.8192138671875,
        1.0
      ],
      "name": "F"
    },
    {
      "mesh": 0,
      "name": "F_Material.003_0"
    },
    {
      "mesh": 1,
      "name": "F_Material.006_0"
    },
    {
      "children": [
        7
      ],
      "matrix": [
        139.72481996382464,
        3.085846546108683e-06,
        50.85567384822973,
        0.0,
        53.709597435569414,
        -2.4398285133862304e-05,
        -147.5659108246304,
        0.0,
        4.959152305870695e-06,
        147.4315490722638,
        -2.2571086203398096e-05,
        0.0,
        589.8176879882813,
        436.2555847167969,
        187.3155517578125,
        1.0
      ],
      "name": "W"
    },
    {
      "mesh": 2,
      "name": "W_Material.002_0"
    },
    {
      "children": [
        9
      ],
      "matrix": [
        103.9804916381836,
        0.0,
        0.0,
        0.0,
        -0.0,
        -2.032868904680247e-05,
        -124.77660369872882,
        0.0,
        0.0,
        152.94979858398236,
        -2.491868509814651e-05,
        0.0,
        -768.9053344726563,
        281.2053527832031,
        179.7316131591797,
        1.0
      ],
      "name": "R"
    },
    {
      "mesh": 3,
      "name": "R_Material.004_0"
    }
  ],
  "samplers": [
    {
      "magFilter": 9729,
      "minFilter": 9987,
      "wrapS": 10497,
      "wrapT": 10497
    }
  ],
  "scene": 0,
  "scenes": [
    {
      "name": "Sketchfab_Scene",
      "nodes": [
        0
      ]
    }
  ],
  "textures": [
    {
      "sampler": 0,
      "source": 0
    },
    {
      "sampler": 0,
      "source": 1
    },
    {
      "sampler": 0,
      "source": 2
    },
    {
      "sampler": 0,
      "source": 3
    },
    {
      "sampler": 0,
      "source": 4
    }
  ]
}
